# AST/ASF file generated using VICON BodyLanguage
# -----------------------------------------------
:version 1.10
:name VICON
:units
  mass 1.0
  length 0.45
  angle deg
:documentation
   .ast/.asf automatically generated from VICON data using
   VICON BodyBuilder and BodyLanguage model FoxedUp or BRILLIANT.MOD
:root
   order TX TY TZ RX RY RZ
   axis XYZ
   position 0 0 0  
   orientation 0 0 0 
:bonedata
  begin
     id 1 
     name lhipjoint
     direction 0.575328 -0.747301 0.332475 
     length 2.40933 
     axis 0 0 0  XYZ
  end
  begin
     id 2 
     name lfemur
     direction 0.34202 -0.939693 0  
     length 7.31453  
     axis 0 0 20  XYZ
    dof rx ry rz
    limits (-160.0 20.0)
           (-70.0 70.0)
           (-60.0 70.0)
  end
  begin
     id 3 
     name ltibia
     direction 0.34202 -0.939693 0   
     length 7.82185   
     axis 0 0 20   XYZ
    dof rx
    limits (-10.0 170.0)
  end
  begin
     id 4 
     name lfoot
     direction 0.0795993 -0.218697 0.972541   
     length 2.19173   
     axis -90 7.62852e-016 20   XYZ
    dof rx rz
    limits (-45.0 90.0)
           (-70.0 20.0)
  end
  begin
     id 5 
     name ltoes
     direction 1.53537e-011 -4.21894e-011 1   
     length 1.10023   
     axis -90 7.62852e-016 20   XYZ
    dof rx
    limits (-90.0 20.0)
  end
  begin
     id 6 
     name rhipjoint
     direction -0.513884 -0.783789 0.348708   
     length 2.29716  
     axis 0 0 0  XYZ 
  end
  begin
     id 7 
     name rfemur
     direction -0.34202 -0.939693 0   
     length 7.59573   
     axis 0 0 -20   XYZ
    dof rx ry rz
    limits (-160.0 20.0)
           (-70.0 70.0)
           (-70.0 60.0)
  end
  begin
     id 8 
     name rtibia
     direction -0.34202 -0.939693 0   
     length 7.66402   
     axis 0 0 -20   XYZ
    dof rx
    limits (-10.0 170.0)
 end
 begin
     id 9 
     name rfoot
     direction -0.137793 -0.378584 0.915253   
     length 2.27056  
     axis -90 -7.62852e-016 -20   XYZ
    dof rx rz
    limits (-45.0 90.0)
           (-20.0 70.0)
  end
  begin
     id 10 
     name rtoes
     direction -1.53493e-011 -4.22159e-011 1   
     length 1.11766   
     axis -90 -7.62852e-016 -20   XYZ
    dof rx
    limits (-90.0 20.0)
  end
  begin
     id 11 
     name lowerback
     direction -0.00732775 0.998356 -0.05685   
     length 2.16513   
     axis 0 0 0   XYZ
    dof rx ry rz
    limits (-20.0 45.0)
           (-30.0 30.0)
           (-30.0 30.0)
  end
  begin
     id 12 
     name upperback
     direction 0.0218081 0.999627 -0.0164647   
     length 2.16755   
     axis 0 0 0   XYZ
    dof rx ry rz
    limits (-20.0 45.0)
           (-30.0 30.0)
           (-30.0 30.0)
  end
  begin
     id 13 
     name thorax
     direction 0.02365 0.999661 0.0108914   
     length 2.16932   
     axis 0 0 0   XYZ
    dof rx ry rz
    limits (-20.0 45.0)
           (-30.0 30.0)
           (-30.0 30.0)
  end
  begin
     id 14 
     name lowerneck
     direction -0.0523929 0.978385 0.200044   
     length 1.63877   
     axis 0 0 0   XYZ
    dof rx ry rz
    limits (-20.0 45.0)
           (-30.0 30.0)
           (-30.0 30.0)
  end
  begin
     id 15 
     name upperneck
     direction 0.0448674 0.981321 -0.187074   
     length 1.69014   
     axis 0 0 0   XYZ
    dof rx ry rz
    limits (-20.0 45.0)
           (-30.0 30.0)
           (-30.0 30.0)
  end
  begin
     id 16
     name head
     direction 0.0199089 0.996118 -0.0857429  
     length 1.70094  
     axis 0 0 0   XYZ
    dof rx ry rz
    limits (-20.0 45.0)
           (-30.0 30.0)
           (-30.0 30.0)
  end
  begin
     id 17 
     name lclavicle
     direction 0.940366 0.30191 -0.156722  
     length 3.37521  
     axis 0 0 0   XYZ
    dof ry rz
    limits (-20.0 10.0)
           (0.0 20.0)
  end
  begin
     id 18 
     name lhumerus
     direction 1 -4.4897e-011 -1.7911e-027   
     length 5.25287   
     axis 180 -30 -90   XYZ
    dof rx ry rz
    limits (-60.0 90.0)
           (-90.0 90.0)
           (-90.0 90.0)
  end
  begin
     id 19
     name lradius
     direction 1 -4.48951e-011 1.04424e-027   
     length 3.51014   
     axis 180 -30 -90   XYZ
    dof rx
    limits (-10.0 170.0)
  end
  begin
     id 20
     name lwrist
     direction 1 -4.48997e-011 -9.5942e-028   
     length 1.75507   
     axis 8.48502e-016 90 90   XYZ
    dof ry
    limits (-180.0 0.0)
 end
  begin
     id 21 
     name lhand
     direction 1 -4.48831e-011 -1.90777e-027   
     length 0.706179   
     axis 1.22306e-015 90 90   XYZ
    dof rx rz
    limits (-90.0 90.0)
           (-45.0 45.0)
  end
  begin
     id 22 
     name lfingers
     direction 1 -4.49108e-011 -3.85244e-027   
     length 0.569339   
     axis 2.44611e-015 90 90   XYZ
    dof rx
    limits (0.0 90.0)
  end
  begin
     id 23
     name lthumb
     direction 0.707107 -6.34953e-011 0.707107   
     length 0.817461   
     axis -90 45 -1.62303e-014   XYZ
    dof rx rz
    limits (-45.0 45.0)
           (-45.0 45.0)
  end
  begin
     id 24 
     name rclavicle
     direction -0.905329 0.382405 -0.184787   
     length 3.30787  
     axis 0 0 0   XYZ 
    dof ry rz
    limits (-10.0 20.0)
           (-20.0 0.0)
  end
  begin
     id 25 
     name rhumerus
     direction -1 -4.48953e-011 -9.15316e-029  
     length 5.28721   
     axis 180 30 90   XYZ
    dof rx ry rz
    limits (-90.0 60.0)
           (-90.0 90.0)
           (-90.0 90.0)
  end
  begin
     id 26 
     name rradius
     direction -1 -4.48987e-011 9.37824e-028   
     length 3.50544   
     axis 180 30 90   XYZ
    dof rx
    limits (-10.0 170.0)
  end
  begin
     id 27 
     name rwrist
     direction -1 -4.48967e-011 -9.58414e-028   
     length 1.75272   
     axis 8.48502e-016 -90 -90   XYZ
    dof ry
    limits (-180.0 0.0)
  end
  begin
     id 28
     name rhand
     direction -1 -4.48904e-011 -1.91266e-027   
     length 0.884996   
     axis 1.22306e-015 -90 -90   XYZ
    dof rx rz
    limits (-90.0 90.0)
           (-45.0 45.0)
  end
  begin
     id 29
     name rfingers
     direction -1 -4.4909e-011 -3.85015e-027   
     length 0.713507   
     axis 2.44611e-015 -90 -90   XYZ
    dof rx
    limits (0.0 90.0)
  end
  begin
     id 30
     name rthumb
     direction -0.707107 -6.34853e-011 0.707107   
     length 1.02446   
     axis -90 -45 1.62303e-014   XYZ
    dof rx rz
    limits (-45.0 45.0)
           (-45.0 45.0)
  end
:hierarchy
  begin
    root lhipjoint rhipjoint lowerback
    lhipjoint lfemur
    lfemur ltibia
    ltibia lfoot
    lfoot ltoes
    rhipjoint rfemur
    rfemur rtibia
    rtibia rfoot
    rfoot rtoes
    lowerback upperback
    upperback thorax
    thorax lowerneck lclavicle rclavicle
    lowerneck upperneck
    upperneck head
    lclavicle lhumerus
    lhumerus lradius
    lradius lwrist
    lwrist lhand lthumb
    lhand lfingers
    rclavicle rhumerus
    rhumerus rradius
    rradius rwrist
    rwrist rhand rthumb
    rhand rfingers
  end

#!OML:ASF F:\twosubjects\two\Thursday\Session 1\justin.ASF
:FULLY-SPECIFIED
:DEGREES
142
root 17.5424 13.0974 9.83401 -205.356 -87.9692 183.066
lowerback 25.9274 4.72239 0.0017461
upperback 13.7409 4.73621 0.596677
thorax 0.865246 1.77307 -0.508666
lowerneck -19.7849 -2.1785 -10.6854
upperneck 32.3832 -0.843383 2.55584
head 14.5899 -1.54796 2.68523
rclavicle 7.45443e-016 1.32192e-014
rhumerus 42.8944 5.5574 -78.1254
rradius 59.6419
rwrist -25.7079
rhand -3.39116 -5.96091
rfingers 7.12502
rthumb 22.3385 -34.6895
lclavicle 7.45443e-016 1.32192e-014
lhumerus -2.92768 -25.6146 90.5341
lradius 59.4414
lwrist -15.0578
lhand -14.9526 31.6793
lfingers 7.12502
lthumb 11.2104 61.3598
rfemur -47.6445 -7.60842 13.1244
rtibia 66.6471
rfoot 3.0829 -0.512707
rtoes -9.61088
lfemur -49.4743 12.5788 -13.0077
ltibia 71.7856
lfoot -0.589075 -8.88821
ltoes -7.31168
143
root 17.5425 13.1069 9.83499 -198.696 -88.0738 176.517
lowerback 26.0403 4.74678 -0.205022
upperback 13.724 4.71095 0.369577
thorax 0.797043 1.75676 -0.63812
lowerneck -19.5902 -2.1015 -10.2744
upperneck 32.3184 -0.866001 2.43416
head 14.5116 -1.52212 2.55923
rclavicle -3.45885e-014 1.5704e-014
rhumerus 43.3342 5.07185 -78.8188
rradius 59.5955
rwrist -26.3381
rhand -2.96052 -6.39833
rfingers 7.12502
rthumb 22.7518 -35.0768
lclavicle -3.45885e-014 1.5704e-014
lhumerus -2.94204 -25.6599 90.2673
lradius 59.6157
lwrist -14.9817
lhand -15.2453 31.2741
lfingers 7.12502
lthumb 10.9282 60.9697
rfemur -47.7731 -7.63354 12.817
rtibia 66.6958
rfoot 3.04576 -0.485836
rtoes -8.53418
lfemur -49.522 12.584 -13.3245
ltibia 71.6852
lfoot -0.518455 -8.80676
ltoes -6.58434
144
root 17.5402 13.1138 9.8388 -187.504 -88.1768 165.448
lowerback 26.1188 4.8975 -0.301447
upperback 13.771 4.87434 0.298621
thorax 0.814328 1.83493 -0.703157
lowerneck -19.4194 -2.196 -10.6012
upperneck 32.3072 -0.896165 2.39346
head 14.4785 -1.58101 2.59232
rclavicle 1.69961e-014 -4.57205e-015
rhumerus 43.8441 4.0991 -78.4209
rradius 59.353
rwrist -27.7068
rhand -4.41138 -6.54168
rfingers 7.12502
rthumb 21.3589 -35.3845
lclavicle 1.69961e-014 -4.57205e-015
lhumerus -2.88156 -26.0936 90.4701
lradius 59.8745
lwrist -14.9046
lhand -15.2511 31.3631
lfingers 7.12502
lthumb 10.9226 61.059
rfemur -47.9185 -7.71304 12.392
rtibia 66.7465
rfoot 3.09478 -0.48811
rtoes -8.12023
lfemur -49.6037 12.5807 -13.8229
ltibia 71.6151
lfoot -0.38175 -8.6654
ltoes -5.94527
145
root 17.5336 13.1108 9.8432 -181.687 -88.2109 159.797
lowerback 26.0867 4.96514 -0.143707
upperback 13.8556 4.98399 0.160405
thorax 0.954536 1.90303 -0.96138
lowerneck -19.5801 -2.33955 -10.8719
upperneck 32.6879 -1.02977 2.47971
head 14.7047 -1.67717 2.65611
rclavicle -6.95746e-015 8.74653e-015
rhumerus 44.3606 3.02036 -78.1562
rradius 59.1917
rwrist -28.7822
rhand -4.65938 -6.95231
rfingers 7.12502
rthumb 21.1206 -35.822
lclavicle -6.95746e-015 8.74653e-015
lhumerus -2.73183 -26.5824 90.388
lradius 60.1221
lwrist -14.7665
lhand -15.2791 31.6744
lfingers 7.12502
lthumb 10.8955 61.3717
rfemur -48.0874 -7.79105 12.2216
rtibia 66.7889
rfoot 3.02697 -0.416263
rtoes -9.30374
lfemur -49.8121 12.5909 -14.0986
ltibia 71.6326
lfoot -0.560764 -8.78967
ltoes -7.12452
146
root 17.5258 13.1096 9.84765 -183.764 -88.2296 162.028
lowerback 25.9908 4.84418 0.13691
upperback 13.9669 4.86864 -0.104989
thorax 1.17488 1.86854 -1.36599
lowerneck -19.7307 -2.29723 -10.6012
upperneck 32.9543 -1.08697 2.56575
head 14.8592 -1.66786 2.63989
rclavicle -2.73329e-014 1.96797e-014
rhumerus 45.0011 2.44074 -79.0059
rradius 59.1062
rwrist -29.0813
rhand -3.74571 -7.83957
rfingers 7.12502
rthumb 21.9981 -36.6086
lclavicle -2.73329e-014 1.96797e-014
lhumerus -2.50452 -26.6833 89.761
lradius 60.3226
lwrist -14.6027
lhand -15.352 31.7304
lfingers 7.12502
lthumb 10.8252 61.4314
rfemur -48.2329 -7.77472 12.3009
rtibia 66.8323
rfoot 2.92749 -0.503936
rtoes -10.1862
lfemur -50.0173 12.61 -14.0738
ltibia 71.6959
lfoot -0.860041 -8.9569
ltoes -7.70933
147
root 17.5194 13.1147 9.84975 -187.219 -88.2477 165.612
lowerback 26.0199 4.85239 0.362039
upperback 14.0408 4.91109 -0.259051
thorax 1.28328 1.90641 -1.6666
lowerneck -19.6576 -2.26488 -10.2698
upperneck 32.9328 -1.23482 2.74738
head 14.8366 -1.66066 2.63269
rclavicle 8.34896e-015 -6.36111e-015
rhumerus 45.5269 1.97554 -80.4146
rradius 58.8172
rwrist -28.9166
rhand -3.99452 -8.4678
rfingers 7.12502
rthumb 21.7592 -37.2647
lclavicle 8.34896e-015 -6.36111e-015
lhumerus -2.27114 -27.039 89.3092
lradius 60.5222
lwrist -14.4227
lhand -15.2706 31.6358
lfingers 7.12502
lthumb 10.9038 61.3327
rfemur -48.3786 -7.77226 12.4559
rtibia 66.8923
rfoot 2.89288 -0.634136
rtoes -10.8836
lfemur -50.173 12.6573 -14.0022
ltibia 71.7556
lfoot -1.07176 -8.97272
ltoes -7.76166
